<svg>
    <symbol xmlns="http://www.w3.org/2000/svg"
    id="applemusic" class="bi bi-music-note-beamed" viewBox="0 0 16 16">
        <path d="M6 13c0 1.105-1.12 2-2.5 2S1 14.105 1 13s1.12-2 2.5-2 2.5.896 2.5 2m9-2c0 1.105-1.12 2-2.5 2s-2.5-.895-2.5-2 1.12-2 2.5-2 2.5.895 2.5 2"/>
        <path fill-rule="evenodd" d="M14 11V2h1v9zM6 3v10H5V3z"/>
        <path d="M5 2.905a1 1 0 0 1 .9-.995l8-.8a1 1 0 0 1 1.1.995V3L5 4z"/>
    </symbol>
    <symbol xmlns="http://www.w3.org/2000/svg"
    id="spotify" class="bi bi-spotify" viewBox="0 0 16 16">
        <path d="M8 0a8 8 0 1 0 0 16A8 8 0 0 0 8 0m3.669 11.538a.5.5 0 0 1-.686.165c-1.879-1.147-4.243-1.407-7.028-.77a.499.499 0 0 1-.222-.973c3.048-.696 5.662-.397 7.77.892a.5.5 0 0 1 .166.686m.979-2.178a.624.624 0 0 1-.858.205c-2.15-1.321-5.428-1.704-7.972-.932a.625.625 0 0 1-.362-1.194c2.905-.881 6.517-.454 8.986 1.063a.624.624 0 0 1 .206.858m.084-2.268C10.154 5.56 5.9 5.419 3.438 6.166a.748.748 0 1 1-.434-1.432c2.825-.857 7.523-.692 10.492 1.07a.747.747 0 1 1-.764 1.288"/>
    </symbol>
    <symbol xmlns="http://www.w3.org/2000/svg"
    id="tiktok" class="bi bi-tiktok" viewBox="0 0 16 16">
        <path d="M9 0h1.98c.144.715.54 1.617 1.235 2.512C12.895 3.389 13.797 4 15 4v2c-1.753 0-3.07-.814-4-1.829V11a5 5 0 1 1-5-5v2a3 3 0 1 0 3 3z"/>
    </symbol>
    <symbol xmlns="http://www.w3.org/2000/svg"
    id="twitter" class="bi bi-twitter" viewBox="0 0 16 16">
        <path d="M5.026 15c6.038 0 9.341-5.003 9.341-9.334q.002-.211-.006-.422A6.7 6.7 0 0 0 16 3.542a6.7 6.7 0 0 1-1.889.518 3.3 3.3 0 0 0 1.447-1.817 6.5 6.5 0 0 1-2.087.793A3.286 3.286 0 0 0 7.875 6.03a9.32 9.32 0 0 1-6.767-3.429 3.29 3.29 0 0 0 1.018 4.382A3.3 3.3 0 0 1 .64 6.575v.045a3.29 3.29 0 0 0 2.632 3.218 3.2 3.2 0 0 1-.865.115 3 3 0 0 1-.614-.057 3.28 3.28 0 0 0 3.067 2.277A6.6 6.6 0 0 1 .78 13.58a6 6 0 0 1-.78-.045A9.34 9.34 0 0 0 5.026 15"/>
    </symbol>
    <symbol xmlns="http://www.w3.org/2000/svg"
    id="youtube" class="bi bi-youtube" viewBox="0 0 16 16">
        <path d="M8.051 1.999h.089c.822.003 4.987.033 6.11.335a2.01 2.01 0 0 1 1.415 1.42c.101.38.172.883.22 1.402l.01.104.022.26.008.104c.065.914.073 1.77.074 1.957v.075c-.001.194-.01 1.108-.082 2.06l-.008.105-.009.104c-.05.572-.124 1.14-.235 1.558a2.01 2.01 0 0 1-1.415 1.42c-1.16.312-5.569.334-6.18.335h-.142c-.309 0-1.587-.006-2.927-.052l-.17-.006-.087-.004-.171-.007-.171-.007c-1.11-.049-2.167-.128-2.654-.26a2.01 2.01 0 0 1-1.415-1.419c-.111-.417-.185-.986-.235-1.558L.09 9.82l-.008-.104A31 31 0 0 1 0 7.68v-.123c.002-.215.01-.958.064-1.778l.007-.103.003-.052.008-.104.022-.26.01-.104c.048-.519.119-1.023.22-1.402a2.01 2.01 0 0 1 1.415-1.42c.487-.13 1.544-.21 2.654-.26l.17-.007.172-.006.086-.003.171-.007A100 100 0 0 1 7.858 2zM6.4 5.209v4.818l4.157-2.408z"/>
    </symbol>
    <symbol xmlns="http://www.w3.org/2000/svg" id="arrow-right" class="bi bi-arrow-right-short" viewBox="0 0 16 16">
        <path fill-rule="evenodd" d="M4 8a.5.5 0 0 1 .5-.5h5.793L8.146 5.354a.5.5 0 1 1 .708-.708l3 3a.5.5 0 0 1 0 .708l-3 3a.5.5 0 0 1-.708-.708L10.293 8.5H4.5A.5.5 0 0 1 4 8"/>
    </symbol>
    <symbol xmlns="http://www.w3.org/2000/svg" id="pause" class="bi bi-pause-fill" viewBox="0 0 16 16">
        <path d="M5.5 3.5A1.5 1.5 0 0 1 7 5v6a1.5 1.5 0 0 1-3 0V5a1.5 1.5 0 0 1 1.5-1.5m5 0A1.5 1.5 0 0 1 12 5v6a1.5 1.5 0 0 1-3 0V5a1.5 1.5 0 0 1 1.5-1.5"/>
    </symbol>
    <symbol xmlns="http://www.w3.org/2000/svg" id="slider-arrow" class="bi bi-caret-left-fill" viewBox="0 0 16 16">
        <path d="m3.86 8.753 5.482 4.796c.646.566 1.658.106 1.658-.753V3.204a1 1 0 0 0-1.659-.753l-5.48 4.796a1 1 0 0 0 0 1.506z"/>
    </symbol>
    <symbol xmlns="http://www.w3.org/2000/svg" id="play" class="bi bi-play-fill" viewBox="0 0 16 16">
        <path d="m11.596 8.697-6.363 3.692c-.54.313-1.233-.066-1.233-.697V4.308c0-.63.692-1.01 1.233-.696l6.363 3.692a.802.802 0 0 1 0 1.393"/>
    </symbol>
    <symbol xmlns="http://www.w3.org/2000/svg" id="menu" class="bi bi-list" viewBox="0 0 16 16">
        <path fill-rule="evenodd" d="M2.5 12a.5.5 0 0 1 .5-.5h10a.5.5 0 0 1 0 1H3a.5.5 0 0 1-.5-.5m0-4a.5.5 0 0 1 .5-.5h10a.5.5 0 0 1 0 1H3a.5.5 0 0 1-.5-.5m0-4a.5.5 0 0 1 .5-.5h10a.5.5 0 0 1 0 1H3a.5.5 0 0 1-.5-.5"/>
    </symbol>
    <symbol xmlns="http://www.w3.org/2000/svg" id="menu-close" class="bi bi-x" viewBox="0 0 16 16">
        <path d="M4.646 4.646a.5.5 0 0 1 .708 0L8 7.293l2.646-2.647a.5.5 0 0 1 .708.708L8.707 8l2.647 2.646a.5.5 0 0 1-.708.708L8 8.707l-2.646 2.647a.5.5 0 0 1-.708-.708L7.293 8 4.646 5.354a.5.5 0 0 1 0-.708"/>
    </symbol>
    <symbol xmlns="http://www.w3.org/2000/svg" id="basket" class="bi bi-basket3" viewBox="0 0 16 16">
        <path d="M5.757 1.071a.5.5 0 0 1 .172.686L3.383 6h9.234L10.07 1.757a.5.5 0 1 1 .858-.514L13.783 6H15.5a.5.5 0 0 1 .5.5v1a.5.5 0 0 1-.5.5H.5a.5.5 0 0 1-.5-.5v-1A.5.5 0 0 1 .5 6h1.717L5.07 1.243a.5.5 0 0 1 .686-.172zM3.394 15l-1.48-6h-.97l1.525 6.426a.75.75 0 0 0 .729.574h9.606a.75.75 0 0 0 .73-.574L15.056 9h-.972l-1.479 6z"/>
    </symbol>
    <symbol xmlns="http://www.w3.org/2000/svg" id="filter" class="bi bi-filter" viewBox="0 0 16 16">
        <path d="M6 10.5a.5.5 0 0 1 .5-.5h3a.5.5 0 0 1 0 1h-3a.5.5 0 0 1-.5-.5m-2-3a.5.5 0 0 1 .5-.5h7a.5.5 0 0 1 0 1h-7a.5.5 0 0 1-.5-.5m-2-3a.5.5 0 0 1 .5-.5h11a.5.5 0 0 1 0 1h-11a.5.5 0 0 1-.5-.5"/>
    </symbol>
    <symbol xmlns="http://www.w3.org/2000/svg" id="category" class="bi bi-card-list" viewBox="0 0 16 16">
        <path d="M14.5 3a.5.5 0 0 1 .5.5v9a.5.5 0 0 1-.5.5h-13a.5.5 0 0 1-.5-.5v-9a.5.5 0 0 1 .5-.5zm-13-1A1.5 1.5 0 0 0 0 3.5v9A1.5 1.5 0 0 0 1.5 14h13a1.5 1.5 0 0 0 1.5-1.5v-9A1.5 1.5 0 0 0 14.5 2z"/>
        <path d="M5 8a.5.5 0 0 1 .5-.5h7a.5.5 0 0 1 0 1h-7A.5.5 0 0 1 5 8m0-2.5a.5.5 0 0 1 .5-.5h7a.5.5 0 0 1 0 1h-7a.5.5 0 0 1-.5-.5m0 5a.5.5 0 0 1 .5-.5h7a.5.5 0 0 1 0 1h-7a.5.5 0 0 1-.5-.5m-1-5a.5.5 0 1 1-1 0 .5.5 0 0 1 1 0M4 8a.5.5 0 1 1-1 0 .5.5 0 0 1 1 0m0 2.5a.5.5 0 1 1-1 0 .5.5 0 0 1 1 0"/>
    </symbol>
    <symbol xmlns="http://www.w3.org/2000/svg" id="price" class="bi bi-currency-dollar" viewBox="0 0 16 16">
        <path d="M4 10.781c.148 1.667 1.513 2.85 3.591 3.003V15h1.043v-1.216c2.27-.179 3.678-1.438 3.678-3.3 0-1.59-.947-2.51-2.956-3.028l-.722-.187V3.467c1.122.11 1.879.714 2.07 1.616h1.47c-.166-1.6-1.54-2.748-3.54-2.875V1H7.591v1.233c-1.939.23-3.27 1.472-3.27 3.156 0 1.454.966 2.483 2.661 2.917l.61.162v4.031c-1.149-.17-1.94-.8-2.131-1.718zm3.391-3.836c-1.043-.263-1.6-.825-1.6-1.616 0-.944.704-1.641 1.8-1.828v3.495l-.2-.05zm1.591 1.872c1.287.323 1.852.859 1.852 1.769 0 1.097-.826 1.828-2.2 1.939V8.73z"/>
    </symbol>
    <symbol xmlns="http://www.w3.org/2000/svg" id="sale" class="bi bi-tag" viewBox="0 0 16 16">
        <path d="M6 4.5a1.5 1.5 0 1 1-3 0 1.5 1.5 0 0 1 3 0m-1 0a.5.5 0 1 0-1 0 .5.5 0 0 0 1 0"/>
        <path d="M2 1h4.586a1 1 0 0 1 .707.293l7 7a1 1 0 0 1 0 1.414l-4.586 4.586a1 1 0 0 1-1.414 0l-7-7A1 1 0 0 1 1 6.586V2a1 1 0 0 1 1-1m0 5.586 7 7L13.586 9l-7-7H2z"/>
    </symbol>
    <symbol xmlns="http://www.w3.org/2000/svg" id="popular" class="bi bi-list-stars" viewBox="0 0 16 16">
        <path fill-rule="evenodd" d="M5 11.5a.5.5 0 0 1 .5-.5h9a.5.5 0 0 1 0 1h-9a.5.5 0 0 1-.5-.5m0-4a.5.5 0 0 1 .5-.5h9a.5.5 0 0 1 0 1h-9a.5.5 0 0 1-.5-.5m0-4a.5.5 0 0 1 .5-.5h9a.5.5 0 0 1 0 1h-9a.5.5 0 0 1-.5-.5"/>
        <path d="M2.242 2.194a.27.27 0 0 1 .516 0l.162.53c.035.115.14.194.258.194h.551c.259 0 .37.333.164.493l-.468.363a.28.28 0 0 0-.094.3l.173.569c.078.256-.213.462-.423.3l-.417-.324a.27.27 0 0 0-.328 0l-.417.323c-.21.163-.5-.043-.423-.299l.173-.57a.28.28 0 0 0-.094-.299l-.468-.363c-.206-.16-.095-.493.164-.493h.55a.27.27 0 0 0 .259-.194zm0 4a.27.27 0 0 1 .516 0l.162.53c.035.115.14.194.258.194h.551c.259 0 .37.333.164.493l-.468.363a.28.28 0 0 0-.094.3l.173.569c.078.255-.213.462-.423.3l-.417-.324a.27.27 0 0 0-.328 0l-.417.323c-.21.163-.5-.043-.423-.299l.173-.57a.28.28 0 0 0-.094-.299l-.468-.363c-.206-.16-.095-.493.164-.493h.55a.27.27 0 0 0 .259-.194zm0 4a.27.27 0 0 1 .516 0l.162.53c.035.115.14.194.258.194h.551c.259 0 .37.333.164.493l-.468.363a.28.28 0 0 0-.094.3l.173.569c.078.255-.213.462-.423.3l-.417-.324a.27.27 0 0 0-.328 0l-.417.323c-.21.163-.5-.043-.423-.299l.173-.57a.28.28 0 0 0-.094-.299l-.468-.363c-.206-.16-.095-.493.164-.493h.55a.27.27 0 0 0 .259-.194z"/>
    </symbol>
    <symbol xmlns="http://www.w3.org/2000/svg" id="cancel" class="bi bi-x-circle" viewBox="0 0 16 16">
        <path d="M8 15A7 7 0 1 1 8 1a7 7 0 0 1 0 14m0 1A8 8 0 1 0 8 0a8 8 0 0 0 0 16"/>
        <path d="M4.646 4.646a.5.5 0 0 1 .708 0L8 7.293l2.646-2.647a.5.5 0 0 1 .708.708L8.707 8l2.647 2.646a.5.5 0 0 1-.708.708L8 8.707l-2.646 2.647a.5.5 0 0 1-.708-.708L7.293 8 4.646 5.354a.5.5 0 0 1 0-.708"/>
    </symbol>
    <symbol xmlns="http://www.w3.org/2000/svg" id="material" fill="currentColor" class="bi bi-dash" viewBox="0 0 16 16">
        <path d="M4 8a.5.5 0 0 1 .5-.5h7a.5.5 0 0 1 0 1h-7A.5.5 0 0 1 4 8"/>
    </symbol>
    <symbol xmlns="http://www.w3.org/2000/svg" id="plus" fill="currentColor" class="bi bi-plus" viewBox="0 0 16 16">
        <path d="M8 4a.5.5 0 0 1 .5.5v3h3a.5.5 0 0 1 0 1h-3v3a.5.5 0 0 1-1 0v-3h-3a.5.5 0 0 1 0-1h3v-3A.5.5 0 0 1 8 4"/>
    </symbol>
</svg> 